Coordinates
version=1
nRows=18
nColumns=34
inDegrees=yes

Units are S.I. units (second, meters, Newtons, ...)
If the header above contains a line with 'inDegrees', this indicates whether rotational values are in degrees (yes) or radians (no).

endheader
time	pelvis_tilt	pelvis_list	pelvis_rotation	pelvis_tx	pelvis_ty	pelvis_tz	hip_flexion_r	hip_adduction_r	hip_rotation_r	knee_angle_r	ankle_angle_r	subtalar_angle_r	mtp_angle_r	hip_flexion_l	hip_adduction_l	hip_rotation_l	knee_angle_l	ankle_angle_l	subtalar_angle_l	mtp_angle_l	lumbar_extension	lumbar_bending	lumbar_rotation	arm_flex_r	arm_add_r	arm_rot_r	elbow_flex_r	pro_sup_r	arm_flex_l	arm_add_l	arm_rot_l	elbow_flex_l	pro_sup_l
3.816667	3.101802	0.097787	4.697639	0.875768	0.930362	-0.092072	-0.180142	-2.549027	-10.872953	0.742836	2.935771	-6.428622	0.000000	-0.072277	-2.308704	-14.133730	-0.024315	4.357263	1.112432	0.000000	-9.854999	1.035769	-1.971443	20.230507	-10.436293	13.479508	36.916288	79.733626	21.923305	-8.294454	9.926832	32.371652	72.288474
3.833333	2.751880	0.111788	4.714224	0.873146	0.931358	-0.092281	0.547501	-2.624872	-10.663763	0.980348	2.527468	-6.915789	0.000000	0.565676	-2.253303	-13.996407	-0.018277	3.878214	0.670459	0.000000	-9.821926	0.994338	-1.861035	21.861011	-10.701044	13.702293	37.736732	79.666844	23.440628	-8.373718	9.587914	33.166443	72.137351
3.850000	2.388730	0.142212	4.741955	0.870684	0.932664	-0.092675	1.276156	-2.733898	-10.505102	1.215990	2.139393	-7.320431	0.000000	1.223227	-2.170691	-13.886415	0.008298	3.413716	0.292703	0.000000	-9.755518	0.946977	-1.754200	23.586027	-10.965570	13.963671	38.473836	79.620606	25.043291	-8.430164	9.280718	33.924060	72.003140
3.866667	2.022042	0.182299	4.779644	0.868111	0.933955	-0.093085	1.997872	-2.867682	-10.391706	1.446437	1.772897	-7.664573	0.000000	1.892138	-2.070802	-13.808775	0.068551	2.982969	-0.024056	0.000000	-9.662585	0.899644	-1.650974	25.416814	-11.236438	14.299051	39.115886	79.599480	26.733341	-8.460138	9.027432	34.617810	71.885463
3.883333	1.655399	0.221828	4.827024	0.865291	0.934757	-0.093383	2.717694	-3.012527	-10.308948	1.676405	1.421694	-8.002037	0.000000	2.578101	-1.970620	-13.756049	0.178998	2.604161	-0.311519	0.000000	-9.549392	0.859878	-1.548340	27.369808	-11.523685	14.748915	39.659968	79.601203	28.510705	-8.463726	8.843381	35.240217	71.776565
3.900000	1.292626	0.250441	4.886059	0.862296	0.934739	-0.093534	3.440565	-3.154313	-10.250206	1.919203	1.079055	-8.386645	0.000000	3.291411	-1.889874	-13.718860	0.361607	2.296244	-0.598475	0.000000	-9.422583	0.835258	-1.443320	29.458715	-11.831688	15.326886	40.097246	79.617453	30.373382	-8.444141	8.749199	35.791133	71.669009
3.916667	0.934947	0.260815	4.957142	0.859313	0.933916	-0.093585	4.171124	-3.283131	-10.212826	2.194120	0.738638	-8.865765	0.000000	4.045244	-1.844910	-13.688001	0.642207	2.072107	-0.906109	0.000000	-9.280497	0.830270	-1.331489	31.684680	-12.160564	16.038261	40.404390	79.636861	32.310702	-8.405620	8.780025	36.267697	71.556010
3.933333	0.572293	0.249492	5.033950	0.856521	0.932474	-0.093612	4.923172	-3.394624	-10.180447	2.520404	0.390519	-9.494346	0.000000	4.859871	-1.844115	-13.647318	1.043070	1.931380	-1.266856	0.000000	-9.101299	0.844816	-1.205047	34.031120	-12.516711	16.923449	40.550280	79.647315	34.297486	-8.353111	8.981965	36.665222	71.425212
3.950000	0.186581	0.216752	5.104595	0.853992	0.930528	-0.093668	5.718224	-3.489196	-10.125458	2.912226	0.028659	-10.314427	0.000000	5.757645	-1.886625	-13.572376	1.575774	1.865749	-1.718286	0.000000	-8.852731	0.875632	-1.055325	36.462946	-12.910372	18.024838	40.520909	79.634918	36.299964	-8.293014	9.390225	36.990343	71.260334
3.966667	-0.236038	0.167027	5.159086	0.851652	0.928158	-0.093758	6.575284	-3.571456	-10.027398	3.378326	-0.333707	-11.313935	0.000000	6.753281	-1.963526	-13.438489	2.240792	1.869089	-2.276852	0.000000	-8.517197	0.917183	-0.877901	38.927010	-13.340658	19.303018	40.345468	79.582964	38.288395	-8.231663	10.004528	37.272749	71.051253
3.983333	-0.702818	0.107638	5.194629	0.849329	0.925480	-0.093827	7.512172	-3.648167	-9.874497	3.927204	-0.667340	-12.439626	0.000000	7.856922	-2.061842	-13.226834	3.034293	1.938198	-2.940484	0.000000	-8.098262	0.961362	-0.675811	41.363428	-13.791810	20.642725	40.087130	79.476760	40.247660	-8.175151	10.797160	37.550357	70.798347
4.000000	-1.221322	0.044728	5.214355	0.846841	0.922592	-0.093797	8.555604	-3.723763	-9.650588	4.573863	-0.947947	-13.656246	0.000000	9.085777	-2.170968	-12.924523	3.957925	2.067299	-3.718575	0.000000	-7.607281	0.999374	-0.457999	43.727189	-14.243721	21.946874	39.804189	79.310823	42.181385	-8.131564	11.746277	37.839601	70.507521
4.016667	-1.800835	-0.020219	5.223515	0.844052	0.919553	-0.093620	9.740327	-3.797423	-9.334213	5.341207	-1.166050	-14.969126	0.000000	10.465485	-2.287321	-12.524867	5.024491	2.245841	-4.643854	0.000000	-7.056702	1.025629	-0.234257	46.000514	-14.680452	23.185885	39.526775	79.089947	44.106786	-8.108793	12.846026	38.131813	70.184849
4.033333	-2.445299	-0.090048	5.227221	0.840906	0.916426	-0.093312	11.094406	-3.864639	-8.912369	6.254583	-1.320843	-16.392942	0.000000	12.017431	-2.413981	-12.031450	6.255336	2.457734	-5.751758	0.000000	-6.466485	1.040028	-0.012762	48.186685	-15.090692	24.365567	39.264158	78.827147	46.039171	-8.108261	14.079085	38.416385	69.838454
4.050000	-3.148927	-0.169599	5.229112	0.837452	0.913289	-0.092912	12.627830	-3.920265	-8.390916	7.335568	-1.415090	-17.924433	0.000000	13.747574	-2.557686	-11.460228	7.673661	2.680662	-7.057198	0.000000	-5.865609	1.047419	0.197883	50.291876	-15.463811	25.483265	39.022214	78.544691	47.972318	-8.123957	15.390103	38.697670	69.486209
4.066667	-3.901674	-0.264342	5.229403	0.833835	0.910214	-0.092458	14.335996	-3.959515	-7.790080	8.598363	-1.458937	-19.552130	0.000000	15.648610	-2.726111	-10.832440	9.298631	2.889223	-8.555338	0.000000	-5.279943	1.055692	0.387178	52.312769	-15.786960	26.526777	38.807660	78.271915	49.874236	-8.149578	16.700058	38.989993	69.157475
4.083333	-4.693885	-0.378614	5.223588	0.830224	0.907235	-0.091983	16.204988	-3.978622	-7.134019	10.046296	-1.473608	-21.270945	0.000000	17.703789	-2.924558	-10.166919	11.137974	3.061053	-10.229201	0.000000	-4.724799	1.073620	0.544022	54.242750	-16.045983	27.498806	38.617829	78.035449	51.706330	-8.185489	17.945221	39.299892	68.884052
4.100000	-5.513817	-0.512491	5.203106	0.826726	0.904323	-0.091540	18.211269	-3.977042	-6.446635	11.671175	-1.485317	-23.073258	0.000000	19.884555	-3.152166	-9.482035	13.179886	3.183894	-12.042801	0.000000	-4.210492	1.108470	0.659230	56.085070	-16.227605	28.423542	38.433823	77.849826	53.446825	-8.238382	19.098301	39.611624	68.690395
